# xmcd CD database file
#
# Track frame offsets:
#	150
#	13927
#	33780
#	56246
#	87671
#	109287
#	130655
#	155393
#	176030
#	193375
#	215723
#	234819
#	257584
#
# Disc length: 3595 seconds
#
# Revision: 0
# Processed by: cddbd v1.5.2PL0 Copyright (c) Steve Scherf et al.
# Submitted via: CDex 1.51
#
DISCID=b80e090d
DTITLE=AjAjA - Rituals and Ceremonies
DYEAR=2007
DGENRE=New Age
TTITLE0=Opening Ceremony
TTITLE1=Rise
TTITLE2=Praising the Sun and the Earth
TTITLE3=Power of the Feminine
TTITLE4=Power of the Masculine
TTITLE5=Rock Ritual
TTITLE6=Dance Ritual
TTITLE7=On Wings of Time
TTITLE8=Coming Home
TTITLE9=Mourning Ceremony
TTITLE10=Spirit of the Forest
TTITLE11=Gratitude Ceremony
TTITLE12=Closing Ceremony
EXTD=YEAR: 2007
EXTT0=
EXTT1=
EXTT2=
EXTT3=
EXTT4=
EXTT5=
EXTT6=
EXTT7=
EXTT8=
EXTT9=
EXTT10=
EXTT11=
EXTT12=
PLAYORDER=
